<?xml version="1.0" encoding="utf-8"?>
<!-- Generator: Adobe Illustrator 16.0.0, SVG Export Plug-In . SVG Version: 6.00 Build 0)  -->
<!DOCTYPE svg PUBLIC "-//W3C//DTD SVG 1.0//EN" "http://www.w3.org/TR/2001/REC-SVG-20010904/DTD/svg10.dtd">
<svg version="1.0" id="Layer_7" xmlns="http://www.w3.org/2000/svg" xmlns:xlink="http://www.w3.org/1999/xlink" x="0px" y="0px"
	 width="259px" height="70px" viewBox="0 0 259 70" enable-background="new 0 0 259 70" xml:space="preserve">
<g>
	<path fill="#666666" d="M59.8,33.3v3.1h7.4c-0.3,1.8-0.8,3-1.7,3.9c-1.1,1.1-2.8,2.3-5.7,2.3c-4.5,0-8-3.7-8-8.1
		c0-4.5,3.5-8.1,8-8.1c2.4,0,4.2,0.9,5.5,2.2l2.2-2.2c-1.8-1.8-4.3-3.1-7.7-3.1c-6.2,0-11.4,5-11.4,11.2s5.2,11.2,11.4,11.2
		c3.3,0,5.9-1.1,7.9-3.2c2-2,2.7-4.9,2.7-7.2c0-0.8-0.1-1.3-0.2-1.9H59.8z M79.5,30.8c-4,0-7.3,3-7.3,7.3c0,4.2,3.3,7.3,7.3,7.3
		c4,0,7.3-3.1,7.3-7.3C86.8,33.8,83.5,30.8,79.5,30.8z M79.5,42.4c-2.2,0-4.1-1.8-4.1-4.4c0-2.6,1.9-4.4,4.1-4.4
		c2.2,0,4.1,1.8,4.1,4.4C83.6,40.6,81.6,42.4,79.5,42.4z M115.1,32.4L115.1,32.4c-0.8-0.8-2.2-1.6-3.9-1.6c-3.6,0-6.8,3.2-6.8,7.3
		c0,4.1,3.2,7.3,6.8,7.3c1.8,0,3.1-0.8,3.9-1.7h0.1v1c0,2.8-1.5,4.3-3.9,4.3c-1.9,0-3.2-1.4-3.7-2.6l-2.8,1.2
		c0.8,1.9,2.9,4.3,6.4,4.3c3.8,0,6.9-2.2,6.9-7.5V31.1h-3V32.4z M111.5,42.4c-2.2,0-3.9-1.8-3.9-4.4c0-2.6,1.7-4.4,3.9-4.4
		s3.9,1.8,3.9,4.4C115.4,40.6,113.7,42.4,111.5,42.4z M95.7,30.8c-4,0-7.3,3-7.3,7.3c0,4.2,3.3,7.3,7.3,7.3c4,0,7.3-3.1,7.3-7.3
		C103,33.8,99.7,30.8,95.7,30.8z M95.7,42.4c-2.2,0-4.1-1.8-4.1-4.4c0-2.6,1.9-4.4,4.1-4.4c2.2,0,4.1,1.8,4.1,4.4
		C99.8,40.6,97.9,42.4,95.7,42.4z M120.7,23.4h3.1v21.9h-3.1V23.4z M133.5,42.4c-1.6,0-2.8-0.8-3.5-2.2l9.7-4l-0.3-0.8
		c-0.6-1.6-2.4-4.6-6.2-4.6s-6.9,2.9-6.9,7.3c0,4.1,3.1,7.3,7.2,7.3c3.3,0,5.3-2,6-3.2l-2.5-1.7C136.2,41.6,135.1,42.4,133.5,42.4z
		 M133.2,33.5c1.3,0,2.3,0.7,2.8,1.6l-6.5,2.7C129.5,34.7,131.6,33.5,133.2,33.5z"/>
	<path fill="#666666" d="M144.8,45.2l7.5-19.9h2.8l7.5,19.9h-2.8l-1.9-5.4h-8.4l-1.9,5.4H144.8z M150.5,37.5h6.6l-3.3-9h-0.2
		L150.5,37.5z"/>
	<path fill="#666666" d="M167,31.6v1.9h0.1c0.3-0.7,0.9-1.2,1.8-1.7c0.8-0.4,1.7-0.7,2.6-0.7c1.7,0,3,0.5,3.9,1.6
		c0.9,1,1.3,2.4,1.3,4.2v8.4h-2.6v-8c0-2.5-1.1-3.8-3.3-3.8c-1.1,0-1.9,0.4-2.6,1.3c-0.7,0.8-1,1.8-1,2.9v7.5h-2.6V31.6H167z"/>
	<path fill="#666666" d="M183.8,45.7c-1.4,0-2.7-0.4-3.6-1.3c-1-0.8-1.4-1.9-1.4-3.3c0-1.5,0.6-2.7,1.8-3.5c1.2-0.8,2.6-1.3,4.3-1.3
		c1.5,0,2.8,0.2,3.7,0.8v-0.4c0-1-0.3-1.8-1-2.4c-0.7-0.6-1.5-0.9-2.5-0.9c-0.8,0-1.4,0.2-2,0.5c-0.6,0.3-1,0.8-1.3,1.4l-2.3-1
		c0.3-0.8,0.9-1.6,1.8-2.3c0.9-0.7,2.2-1,3.7-1c1.8,0,3.2,0.5,4.4,1.5c1.2,1,1.8,2.4,1.8,4.3v8.2h-2.4v-1.9h-0.1
		C187.2,44.9,185.7,45.7,183.8,45.7z M184.2,43.4c1.1,0,2-0.4,2.8-1.2c0.8-0.8,1.3-1.8,1.3-2.8c-0.8-0.6-1.8-0.9-3.3-0.9
		c-1.3,0-2.2,0.3-2.8,0.8c-0.7,0.5-0.9,1.2-0.9,1.9c0,0.7,0.2,1.2,0.8,1.6C182.8,43.2,183.5,43.4,184.2,43.4z"/>
	<rect x="193.7" y="25.4" fill="#666666" width="2.6" height="19.8"/>
	<polygon fill="#666666" points="203,51.2 200.4,51.2 203.5,44.4 197.9,31.6 200.7,31.6 204.7,41.4 204.8,41.4 208.7,31.6 
		211.5,31.6 	"/>
	<path fill="#666666" d="M219.1,45.5c-1.4,0-2.5-0.4-3.3-1.2c-0.8-0.8-1.1-1.8-1.1-3.2V34h-2.4v-2.3h2.4v-4.2h2.6v4.2h3.3V34h-3.3
		v6.9c0,1.5,0.6,2.3,1.8,2.3c0.5,0,0.8-0.1,1.2-0.3l0.9,2.2C220.6,45.4,219.9,45.5,219.1,45.5z"/>
	<path fill="#666666" d="M226,28.2c-0.3,0.3-0.8,0.5-1.3,0.5c-0.5,0-0.9-0.2-1.3-0.5c-0.3-0.3-0.5-0.8-0.5-1.3s0.2-0.9,0.5-1.3
		c0.3-0.3,0.8-0.5,1.3-0.5c0.5,0,0.9,0.2,1.3,0.5c0.3,0.3,0.5,0.8,0.5,1.3S226.3,27.9,226,28.2z M226,45.2h-2.6V31.6h2.6V45.2z"/>
	<path fill="#666666" d="M235.4,45.7c-2,0-3.7-0.7-5-2.1c-1.3-1.3-2-3.1-2-5.2c0-2.1,0.7-3.8,2-5.2c1.3-1.3,3-2.1,5-2.1
		c1.5,0,2.8,0.3,3.8,1.1c1,0.8,1.8,1.7,2.2,2.8l-2.3,1c-0.7-1.7-2-2.6-3.8-2.6c-1.2,0-2.1,0.5-3,1.4c-0.8,0.9-1.3,2.1-1.3,3.5
		c0,1.4,0.4,2.6,1.3,3.5c0.8,0.9,1.8,1.4,3,1.4c1.9,0,3.2-0.8,3.9-2.6l2.3,1c-0.4,1.1-1.2,2-2.3,2.8
		C238.1,45.3,236.9,45.7,235.4,45.7z"/>
	<path fill="#666666" d="M248.7,45.7c-1.5,0-2.8-0.3-3.8-1.1c-1-0.8-1.8-1.7-2.2-2.8l2.3-0.9c0.8,1.7,1.9,2.6,3.7,2.6
		c0.8,0,1.4-0.2,1.9-0.5c0.5-0.3,0.8-0.8,0.8-1.4c0-0.9-0.6-1.5-1.8-1.8l-2.8-0.7c-0.8-0.2-1.7-0.7-2.5-1.3
		c-0.8-0.6-1.2-1.4-1.2-2.5c0-1.2,0.5-2.2,1.6-2.9c1.1-0.8,2.3-1.1,3.8-1.1c1.2,0,2.3,0.2,3.3,0.8c0.9,0.5,1.6,1.3,2,2.3l-2.3,0.9
		c-0.5-1.2-1.5-1.8-3.1-1.8c-0.8,0-1.4,0.2-1.9,0.5c-0.5,0.3-0.8,0.8-0.8,1.3c0,0.8,0.6,1.3,1.8,1.6l2.7,0.7
		c1.3,0.3,2.3,0.8,2.8,1.5c0.6,0.8,0.9,1.5,0.9,2.4c0,1.3-0.5,2.3-1.5,3.1C251.5,45.3,250.3,45.7,248.7,45.7z"/>
	<path fill="#EF5925" d="M35.4,18.4h-6.5c-1.3,0-1.9,1.6-1.9,2.9v31.1h8.3c1.3,0,1.7-1.4,1.7-2.7V21.3C37.1,20,36.7,18.4,35.4,18.4z
		"/>
	<path fill="#F69922" d="M17.6,29.4c-1.3,0-2.5,0.7-2.5,2v10H7c-1.3,0-2,0.4-2,1.8v6.5c0,1.3,0.6,2.7,2,2.7h20v-23H17.6z"/>
</g>
</svg>
