<?xml version="1.0" encoding="utf-8"?>
<!-- Generator: Adobe Illustrator 16.0.0, SVG Export Plug-In . SVG Version: 6.00 Build 0)  -->
<!DOCTYPE svg PUBLIC "-//W3C//DTD SVG 1.0//EN" "http://www.w3.org/TR/2001/REC-SVG-20010904/DTD/svg10.dtd">
<svg version="1.0" id="Layer_4" xmlns="http://www.w3.org/2000/svg" xmlns:xlink="http://www.w3.org/1999/xlink" x="0px" y="0px"
	 width="259px" height="70px" viewBox="0 0 259 70" enable-background="new 0 0 259 70" xml:space="preserve">
<g>
	<rect x="76.1" y="34.1" width="0" height="0"/>
	<path d="M232.5,42.7L232.5,42.7l-0.1-0.3l0-0.1c2.3-4.8,5-7.5,7.3-7.5h0c2.6,0,4.4,2.4,4.4,5.7c0,2.2-1,3.5-1.8,4.2
		c-0.9,0.8-2.2,1.2-3.4,1.2C235.9,46,233.8,44.2,232.5,42.7L232.5,42.7z M231.9,60.7c-0.4,0.5-0.9,0.7-1.5,0.7
		c-0.7,0-1.3-0.3-1.7-0.8c-1.1-1.4-0.8-4.8,1-10.9c0.2-0.7,0.4-1.5,0.7-2.2l0.2-0.6l0.2,0.6C232.7,54.7,233.1,59.1,231.9,60.7
		L231.9,60.7z M157.4,28.4c0.1-1.5,0.2-3,0.4-4.4c1.2-9,3.6-15.3,6-15.3h0c1.1,0,1.7,0.8,1.7,2.5c0,4.1-2.6,9.9-7.6,17.3l-0.4,0.6
		L157.4,28.4L157.4,28.4z M239.2,48.9L239.2,48.9c5,0,8.4-3.4,8.5-8.3c0-2.4-0.7-4.6-2-6.2c-1.4-1.7-3.3-2.6-5.5-2.6h0
		c-3,0-5.8,2.3-8.6,7l-0.2,0.4l-0.1-0.4c-0.7-2-1.3-3.7-1.7-4.7c-0.3-0.7-0.4-1-0.4-1.1c-0.1-0.5-0.6-0.8-1.1-0.8
		c-0.3,0-0.7,0.1-1.1,0.3c-0.3,0.2-0.5,0.5-0.6,0.9l0,0.1c-2.7,8.6-5,12.7-6.9,12.7c-0.3,0-0.5-0.1-0.7-0.3
		c-0.5-0.6-0.4-1.9-0.2-3.7c0.1-1.3,0.3-2.9,0.2-4.5c-0.1-3.1-1.8-5-4.5-5c-3.5,0-5.7,3.7-6.8,5.9l-0.3,0.7l-0.1-0.7
		c-0.3-2.7-1.2-6-4.1-6c-3.4,0-5.9,4-7.5,7.3l-0.4,0.9l0-1c0.2-4.4,0.3-7,0.5-7.8c0.1-0.7,0.1-1.2-0.2-1.5c-0.2-0.3-0.7-0.4-1.3-0.3
		c-1.1,0.1-1.6,0.7-2.5,2.9c-1.4,3.6-4.8,12-7.6,12c-0.5,0-1-0.2-1.3-0.6c-1.2-1.3-0.7-4.9-0.1-9.9l0-0.4c0.3-2.4-0.2-2.9-1.5-3.1
		c-0.1,0-0.3,0-0.4,0c-1,0-1.5,1-2.5,3.7c-1.7,4.8-3.9,10-6.5,10c-0.1,0-0.2,0-0.3,0c-1.4-0.2-1.3-2.2-1.3-4.8c0-1.4,0-2.9-0.2-4.4
		c-0.4-2.5-1.9-4.1-3.9-4.1c-4,0-6.8,5.2-8,8.2l-0.3,0.7l-0.1-0.7c-0.2-1.3-0.4-3.4-0.5-5.9l0-0.1l0-0.1c7.5-9.5,10.9-16.3,11-22.2
		c0-3.8-1.7-6-4.6-6c-2.1,0-7.2,1.8-9,18.3c-0.3,3.1-0.5,6.2-0.5,9.3V33l0,0.1c-3.5,5-10.8,13.6-18,13.6c-6.5,0-11.7-5.3-11.7-14.6
		c0-12.5,8.8-20.1,15.5-20.1h0.1c1.4,0,2.7,0.4,3.6,1.2c0.9,0.8,1.4,1.9,1.4,3.2c0,1.7-0.6,2.6-1.1,3.5c-0.1,0.2-0.3,0.4-0.4,0.7
		c-0.1,0.2-0.2,0.6-0.1,0.9c0.2,0.3,0.6,0.5,1.2,0.5c1.6,0,4-2.3,4-5.7c0-3.6-3-7.3-8.4-7.3c-8.2,0-19.3,9-19.3,23.6
		c0,10.3,6.5,17.5,15.3,17.5c6.2,0,12.4-4.5,17.9-11.9l0.3-0.5l0,0.6c0.1,2.7,0.3,4.9,0.5,6.4c0.1,1,0.2,1.7,0.2,2.1
		c0,0.9,0.1,1.5,0.4,1.9c0.3,0.4,0.8,0.6,1.5,0.6c1.2,0,1.5-0.8,2-2.9l0.1-0.6c0.6-2.5,2.8-10.7,6.2-10.7c0.5,0,1,0.2,1.3,0.5
		c0.7,0.8,0.7,2.4,0.6,4.3c-0.1,1.2-0.1,2.4,0,3.5c0.3,3.2,1.7,4.7,4.2,4.7c2.6,0,5.2-2.8,6.6-5.3l0.3-0.5l0.1,0.5
		c0.3,1.4,1.4,5.9,5.1,5.9c3.3,0,6.1-3.5,9.2-10.6l0.4-0.9l0,1c-0.1,2.7-0.2,6-0.2,8.6c0,2,0.2,2.7,1.1,2.7c0.1,0,0.1,0,0.2,0
		c0.9,0,1.5-0.5,1.8-1.6c2.3-8.2,4.4-11.9,6.4-11.9c2,0,2.1,3.6,2.3,9.9l0,0.4c0,2.2,0.1,3.2,1.5,3.2c1,0,1.3-0.8,1.8-2.8
		c0.1-0.4,0.2-0.8,0.3-1.3c1.9-6.5,3.5-9.2,5.4-9.2c1.7,0,1.8,1.7,1.8,2.3c0.1,1.2-0.1,2.5-0.2,3.7c-0.1,1.1-0.2,2.3-0.2,3.4
		c0.1,2.6,1.5,4,4,4c3.2,0,6-3.7,8.5-11l0.2-0.5l0.2,0.5c0.5,1.1,1.1,2.7,1.6,4.6l0,0.1l0,0.1c-2.4,5.4-4.1,11.4-4.2,14.6
		c0,4.2,1.9,7,4.9,7h0.1c1.6,0,5.4-0.7,5.5-6.7c0-2.5-0.6-6-1.7-10.4l-0.1-0.5l0.4,0.3C235.8,48.4,237.5,48.9,239.2,48.9L239.2,48.9
		z"/>
	<g>
		<polygon points="239.7,35.1 239.7,35.1 239.7,35.1 		"/>
		<path d="M79.3,36.5c-1.1,4.3-3.1,9.5-6.8,9.8c-0.1,0-0.2,0-0.3,0c-1.5,0-2.4-1-2.6-3c-0.2-2.5,0.9-5.4,2.7-7.4
			c1.2-1.3,2.5-2,3.8-2h0c1.6,0,2.7,1.3,3.2,2.4L79.3,36.5L79.3,36.5L79.3,36.5z M113.2,12.5L113.2,12.5c0.4,0,0.7,0.2,1,0.5
			c1.2,1.6,1.2,7.6-0.9,14.4c-1.2,3.9-2.8,7.6-4.6,10.6l-0.3,0.5l-0.1-0.6c-0.2-1.6-0.3-3.4-0.4-4.8
			C107.4,22.8,110.5,12.6,113.2,12.5L113.2,12.5z M85.1,48.1c3.6-0.3,6.4-5.1,7.5-7.2l0.3-0.5l0.1,0.6c0.5,2.9,2.1,7.8,7.1,7.9l0,0
			c2.1,0,4.6-1.3,7-3.8l0.2-0.2l0.1,0.2c1.7,2.8,3.9,4.2,6.2,4.1c3.5-0.2,5.6-2.7,5.8-4.4c0-0.4-0.1-0.8-0.3-1.1
			c-0.3-0.4-0.8-0.4-1.1-0.1l-0.2,0.2c-0.8,0.8-2.3,2.2-4,2.3c-2,0.1-3.5-1.1-4.5-3.6l0-0.1l0.1-0.1c5.5-7.3,9.4-18.3,9.1-25.7
			c-0.2-3.4-1.2-7.5-4.9-7.5c-0.1,0-0.2,0-0.3,0c-1.4,0.1-2.7,0.8-3.9,2c-3.5,3.9-5.3,13.5-4.6,24.4c0.1,2.3,0.5,4.4,1.2,6.3l0,0.1
			l-0.1,0.1c-2.1,2.4-4.1,3.7-5.7,3.7c-3.9,0-3.8-6.6-3.5-12c0.1-1.2,0.2-1.9-0.2-2.3c-0.2-0.3-0.7-0.5-1.3-0.5h-0.1
			c-1.4,0-1.7,0.3-2.4,2.4c-1.5,4.3-4.4,11.5-7.4,11.5c-0.8,0-1.4-0.3-1.9-0.8c-1.4-1.8-0.3-6.4,0.5-10c0.2-0.7,0.3-1.3,0.4-1.9
			c0.2-0.9,0.1-1.5-0.2-1.9c-0.3-0.4-0.9-0.5-1.7-0.5c-1.3,0.1-2.1,0.6-2.5,3L80,33.2l-0.3-0.4c-0.6-0.8-1.6-1.8-3.6-1.8
			c-0.2,0-0.4,0-0.5,0c-2.1,0.2-4.6,1.7-6.3,3.9c-2.1,2.6-3.1,5.9-2.8,9.2c0,0.2,0,0.3,0.1,0.5l0,0.1l-0.1,0.1c-1.2,1.4-2.5,2-3.8,2
			c-1.9,0-3-1.5-3-3.8c0-4,2.7-16.2,2.7-20.5c0-4.7-2.1-7.2-5.7-7.2h-0.1c-5.3,0-9.4,6-13.3,18.3c-0.4,1.1-0.8,2.4-1.1,3.6L41.6,39
			l0.2-1.9c0.4-4.3,0.6-8.5,0.7-12.4c0.2-6-0.6-9.8-2.5-11.7c-1-1-2.3-1.6-4-1.6h0c-6.5,0-9.6,10.9-11.8,18.6
			c-0.7,2.3-2,7.6-2.9,11.1l0.5-0.9c0.4-4.5,1.5-15.8,1.5-21.9c-0.1-6.6-2.3-9.5-7.1-9.6h-0.1c-2.6,0-4.4,1.3-5.4,2.4
			C9,12.8,8,15.3,8,17.5c0,1.3,0.8,2.5,1.5,2.5c0.4,0,0.6-0.5,0.7-0.9c1.5-4.9,3.4-7.3,5.9-7.3c1,0,1.8,0.3,2.4,0.9
			c1.9,2.1,1.6,7.7,0.9,17.9c-0.2,3.3-0.4,7-0.6,11.2c0,0.7-0.1,1.4-0.1,2.1c-0.2,2.9-0.3,5.3,0.8,5.4c1.5,0.2,2.4-0.4,2.9-1.8
			c0.7-2.1,2.3-8,5.4-18.6c3-10.2,5.2-13.9,8.1-13.9c3.3,0,3.6,5.7,3,17.8c-0.1,2.6-0.3,5.5-0.4,8.6c0,0.4,0,0.9-0.1,1.3
			c-0.1,2.6-0.2,4.7,0.5,5.5c0.2,0.2,0.5,0.4,1,0.4c1.4,0,1.9-1.3,2.6-3.4c0.1-0.4,0.3-0.8,0.4-1.2c4.9-13.7,8.6-25.5,13.5-25.5
			c1.5,0,2.6,1.2,2.6,3.5c0,5.4-2.6,15.8-2.6,21.1c0,1.9,0.5,3.6,1.6,4.8c1.1,1.2,2.5,1.9,4.3,1.9h0c1.6,0,3.4-0.8,5.1-2.4l0.2-0.1
			l0.1,0.2c1.1,1.5,3,2.4,5,2.2c3.1-0.2,5.6-3,6.6-5.5l0.2-0.5l0.2,0.5C80.3,46.1,81.8,48.4,85.1,48.1L85.1,48.1z"/>
	</g>
	<polygon points="163.7,8.9 163.7,8.9 163.7,8.9 	"/>
	<path d="M96.5,20.7c-1.4,0-2.5,1.1-2.5,2.4c0,1.3,1.1,2.4,2.4,2.4l0,0.2l0,0v-0.2c1.3,0,2.4-1.1,2.5-2.4
		C98.9,21.8,97.8,20.7,96.5,20.7L96.5,20.7z"/>
	<g>
		<path d="M182.2,20.7c-1.4,0-2.5,1.1-2.5,2.4c0,1.3,1.1,2.4,2.4,2.4l0,0.2l0,0v-0.2c1.3,0,2.4-1.1,2.5-2.4
			C184.6,21.8,183.5,20.7,182.2,20.7L182.2,20.7z"/>
		<path d="M248.9,49.3c-0.8,0-1.4-0.6-1.4-1.4c0-0.8,0.6-1.4,1.4-1.4c0.8,0,1.4,0.6,1.4,1.4C250.4,48.7,249.7,49.3,248.9,49.3
			L248.9,49.3z M248.9,46.2c-0.9,0-1.7,0.8-1.7,1.7c0,0.9,0.8,1.7,1.7,1.7c0.9,0,1.7-0.8,1.7-1.7C250.6,46.9,249.9,46.2,248.9,46.2
			L248.9,46.2z"/>
	</g>
	<path d="M248.9,47.8h-0.3v-0.7h0.4c0.2,0,0.4,0.1,0.4,0.3C249.4,47.7,249.2,47.8,248.9,47.8L248.9,47.8z M249.7,47.4
		c0-0.3-0.2-0.5-0.6-0.5h-0.7v1.9h0.2V48h0.3l0.6,0.8h0.3l-0.6-0.8C249.5,47.9,249.7,47.8,249.7,47.4L249.7,47.4z"/>
</g>
</svg>
