<?xml version="1.0" encoding="utf-8"?>
<!-- Generator: Adobe Illustrator 16.0.0, SVG Export Plug-In . SVG Version: 6.00 Build 0)  -->
<!DOCTYPE svg PUBLIC "-//W3C//DTD SVG 1.0//EN" "http://www.w3.org/TR/2001/REC-SVG-20010904/DTD/svg10.dtd">
<svg version="1.0" id="Layer_5" xmlns="http://www.w3.org/2000/svg" xmlns:xlink="http://www.w3.org/1999/xlink" x="0px" y="0px"
	 width="259px" height="70px" viewBox="0 0 259 70" enable-background="new 0 0 259 70" xml:space="preserve">
<g>
	<g>
		<g>
			<path fill="#95BF47" d="M70.4,16.7c0-0.3-0.3-0.5-0.5-0.5c-0.2,0-4.6-0.3-4.6-0.3s-3.1-3.1-3.4-3.4c-0.3-0.3-1-0.2-1.2-0.2
				c0,0-0.7,0.2-1.7,0.5c-1-3-2.8-5.7-6-5.7c-0.1,0-0.2,0-0.3,0c-0.9-1.2-2-1.7-3-1.7c-7.4,0-11,9.3-12.1,14c-2.9,0.9-5,1.5-5.2,1.6
				c-1.6,0.5-1.7,0.5-1.9,2.1C30.3,24.3,26.1,57,26.1,57l32.8,6.2l17.8-3.8C76.7,59.2,70.5,17,70.4,16.7z M57.1,13.4
				c-0.8,0.2-1.8,0.5-2.8,0.9c0-0.2,0-0.4,0-0.6c0-1.8-0.2-3.3-0.7-4.5C55.3,9.4,56.4,11.3,57.1,13.4z M51.6,9.6
				c0.5,1.2,0.7,2.8,0.7,5c0,0.1,0,0.2,0,0.3c-1.8,0.6-3.8,1.2-5.7,1.8C47.7,12.4,49.8,10.4,51.6,9.6z M49.4,7.5
				c0.3,0,0.7,0.1,0.9,0.3c-2.4,1.1-4.9,3.9-6,9.6c-1.6,0.5-3.1,0.9-4.5,1.4C41.1,14.5,44.1,7.5,49.4,7.5z"/>
			<path fill="#5E8E3E" d="M69.9,16.2c-0.2,0-4.6-0.3-4.6-0.3s-3.1-3.1-3.4-3.4c-0.1-0.1-0.3-0.2-0.5-0.2l-2.5,50.8l17.8-3.8
				c0,0-6.2-42.3-6.3-42.5C70.4,16.5,70.1,16.3,69.9,16.2z"/>
			<path fill="#FFFFFF" d="M52.9,26.1l-2.2,6.5c0,0-1.9-1-4.3-1c-3.5,0-3.6,2.2-3.6,2.7c0,3,7.8,4.1,7.8,11.1c0,5.5-3.5,9-8.2,9
				c-5.7,0-8.5-3.5-8.5-3.5l1.5-5c0,0,3,2.6,5.5,2.6c1.7,0,2.3-1.3,2.3-2.2c0-3.9-6.4-4-6.4-10.4c0-5.4,3.8-10.6,11.6-10.6
				C51.4,25.2,52.9,26.1,52.9,26.1z"/>
		</g>
		<path id="s" d="M97.5,38.3c-1.8-0.9-2.7-1.8-2.7-2.9c0-1.4,1.3-2.3,3.3-2.3c2.3,0,4.4,1,4.4,1l1.6-5c0,0-1.5-1.2-5.9-1.2
			c-6.1,0-10.4,3.5-10.4,8.4c0,2.8,2,4.9,4.6,6.4c2.1,1.2,2.9,2.1,2.9,3.3c0,1.3-1.1,2.4-3.1,2.4c-2.9,0-5.7-1.5-5.7-1.5l-1.7,5
			c0,0,2.6,1.7,6.9,1.7c6.3,0,10.8-3.1,10.8-8.7C102.5,42,100.2,39.9,97.5,38.3z"/>
		<path id="h" d="M122.5,27.9c-3.1,0-5.5,1.5-7.4,3.7l-0.1,0l2.7-14h-7l-6.8,35.8h7l2.3-12.2c0.9-4.6,3.3-7.5,5.5-7.5
			c1.6,0,2.2,1.1,2.2,2.6c0,0.9-0.1,2.1-0.3,3.1l-2.6,14h7l2.7-14.5c0.3-1.5,0.5-3.3,0.5-4.6C128.3,30.3,126.2,27.9,122.5,27.9z"/>
		<path id="o" d="M144.1,27.9c-8.4,0-14,7.6-14,16.1c0,5.4,3.3,9.8,9.6,9.8c8.3,0,13.8-7.4,13.8-16.1
			C153.6,32.6,150.6,27.9,144.1,27.9z M140.6,48.4c-2.4,0-3.4-2-3.4-4.6c0-4,2.1-10.5,5.9-10.5c2.5,0,3.3,2.1,3.3,4.2
			C146.4,41.8,144.3,48.4,140.6,48.4z"/>
		<path id="p" d="M171.5,27.9c-4.7,0-7.4,4.2-7.4,4.2H164l0.4-3.8h-6.2c-0.3,2.5-0.9,6.4-1.4,9.3l-4.9,25.6h7l1.9-10.4h0.2
			c0,0,1.4,0.9,4.1,0.9c8.2,0,13.6-8.4,13.6-16.9C178.7,32.1,176.6,27.9,171.5,27.9z M164.8,48.5c-1.8,0-2.9-1-2.9-1l1.2-6.5
			c0.8-4.4,3.1-7.3,5.5-7.3c2.1,0,2.8,2,2.8,3.8C171.4,42,168.7,48.5,164.8,48.5z"/>
		<path id="dot" d="M188.7,17.9c-2.2,0-4,1.8-4,4c0,2.1,1.3,3.5,3.3,3.5h0.1c2.2,0,4-1.5,4.1-4C192.2,19.3,190.8,17.9,188.7,17.9z"
			/>
		<polygon id="i" points="178.9,53.3 185.9,53.3 190.6,28.4 183.6,28.4 		"/>
		<path id="f" d="M208.4,28.4h-4.9l0.2-1.2c0.4-2.4,1.8-4.5,4.2-4.5c1.2,0,2.2,0.4,2.2,0.4l1.4-5.5c0,0-1.2-0.6-3.8-0.6
			c-2.5,0-5,0.7-6.9,2.3c-2.4,2-3.5,5-4,7.9l-0.2,1.2h-3.3l-1,5.3h3.3l-3.7,19.6h7l3.7-19.6h4.8L208.4,28.4z"/>
		<path id="y" d="M225.3,28.4c0,0-4.4,11-6.3,17.1h-0.1c-0.1-1.9-1.7-17.1-1.7-17.1h-7.4l4.2,22.8c0.1,0.5,0,0.8-0.2,1.2
			c-0.8,1.6-2.2,3.1-3.8,4.2c-1.3,0.9-2.8,1.6-4,2l1.9,5.9c1.4-0.3,4.4-1.5,6.9-3.8c3.2-3,6.2-7.6,9.2-13.9l8.6-18.4H225.3z"/>
	</g>
</g>
</svg>
