<?xml version="1.0" encoding="utf-8"?>
<!-- Generator: Adobe Illustrator 16.0.0, SVG Export Plug-In . SVG Version: 6.00 Build 0)  -->
<!DOCTYPE svg PUBLIC "-//W3C//DTD SVG 1.0//EN" "http://www.w3.org/TR/2001/REC-SVG-20010904/DTD/svg10.dtd">
<svg version="1.0" id="Layer_3" xmlns="http://www.w3.org/2000/svg" xmlns:xlink="http://www.w3.org/1999/xlink" x="0px" y="0px"
	 width="259px" height="70px" viewBox="0 0 259 70" enable-background="new 0 0 259 70" xml:space="preserve">
<g>
	<g>
		<g>
			<path fill="#00749A" d="M147,29.7h-8.7v0.9c2.7,0,3.2,0.6,3.2,4v6.2c0,3.5-0.4,4.1-3.2,4.1c-2.1-0.3-3.5-1.4-5.4-3.6l-2.2-2.4
				c3-0.5,4.6-2.4,4.6-4.6c0-2.7-2.3-4.7-6.6-4.7h-8.6v0.9c2.7,0,3.2,0.6,3.2,4v6.2c0,3.5-0.4,4.1-3.2,4.1v0.9h9.7v-0.9
				c-2.7,0-3.2-0.6-3.2-4.1v-1.8h0.8l5.4,6.8H147c7,0,10-3.7,10-8.1C157,33.3,154,29.7,147,29.7 M126.6,37.6v-6.5h2
				c2.2,0,3.2,1.5,3.2,3.3c0,1.7-1,3.2-3.2,3.2H126.6z M147.2,44.4h-0.3c-1.8,0-2-0.4-2-2.7V31.1h2.3c5.1,0,6,3.7,6,6.6
				C153.1,40.7,152.2,44.4,147.2,44.4"/>
			<path fill="#00749A" d="M93,39.4l3.4-9.9c1-2.9,0.5-3.7-2.6-3.7v-1h9.1v1c-3.1,0-3.8,0.7-5,4.3l-5.5,16.6h-0.6l-5-15.2l-5.1,15.2
				h-0.6l-5.4-16.6c-1.2-3.6-1.9-4.3-4.8-4.3v-1h10.8v1c-2.9,0-3.6,0.7-2.6,3.7l3.3,9.9l4.9-14.6h0.9L93,39.4z"/>
			<path fill="#00749A" d="M109.6,46.5c-5.4,0-9.7-3.9-9.7-8.8c0-4.8,4.4-8.7,9.7-8.7c5.4,0,9.7,3.9,9.7,8.7
				C119.3,42.6,114.9,46.5,109.6,46.5 M109.6,30.5c-4.5,0-6,4-6,7.2c0,3.2,1.6,7.2,6,7.2c4.5,0,6.1-4,6.1-7.2
				C115.6,34.6,114.1,30.5,109.6,30.5"/>
			<path fill="#464342" d="M169,44.9v1h-11.1v-1c3.3,0,3.8-0.8,3.8-5.7v-7.8c0-4.9-0.6-5.6-3.8-5.6v-1h10.1c5,0,7.8,2.6,7.8,6
				c0,3.4-2.8,6-7.8,6h-2.8v2.4C165.2,44.1,165.7,44.9,169,44.9 M167.9,26.5h-2.8V35h2.8c2.7,0,4-1.9,4-4.2
				C171.9,28.5,170.7,26.5,167.9,26.5"/>
			<path fill="#464342" d="M209.1,41.3l-0.2,0.9c-0.4,1.6-1,2.2-4.4,2.2h-0.7c-2.5,0-3-0.6-3-4v-2.2c3.8,0,4.1,0.3,4.1,2.9h0.9v-7.2
				h-0.9c0,2.5-0.3,2.9-4.1,2.9v-5.4h2.7c3.5,0,4,0.6,4.4,2.2l0.2,0.9h0.8l-0.3-4.6h-14.3v0.9c2.7,0,3.2,0.6,3.2,4v6.2
				c0,3.2-0.4,4-2.5,4.1c-2-0.3-3.4-1.4-5.4-3.5l-2.2-2.4c3-0.5,4.6-2.4,4.6-4.6c0-2.7-2.3-4.7-6.6-4.7h-8.6v0.9
				c2.7,0,3.2,0.6,3.2,4v6.2c0,3.5-0.4,4.1-3.2,4.1v0.9h9.7v-0.9c-2.7,0-3.2-0.6-3.2-4.1v-1.8h0.8l5.4,6.8h20l0.3-4.6H209.1z
				 M183.4,37.6v-6.5h2c2.2,0,3.2,1.5,3.2,3.3c0,1.7-1,3.2-3.2,3.2H183.4z"/>
			<path fill="#464342" d="M219,46.5c-1.9,0-3.6-1-4.4-1.7c-0.2,0.2-0.7,1-0.8,1.7h-0.9v-6.7h1c0.4,3.2,2.6,5.1,5.5,5.1
				c1.6,0,2.8-0.9,2.8-2.3c0-1.3-1.1-2.2-3.1-3.2l-2.8-1.3c-1.9-0.9-3.4-2.5-3.4-4.7c0-2.3,2.2-4.3,5.2-4.3c1.6,0,3,0.6,3.8,1.3
				c0.2-0.2,0.5-0.7,0.6-1.3h0.9v5.7h-1c-0.3-2.3-1.6-4.2-4.2-4.2c-1.4,0-2.6,0.8-2.6,2c0,1.3,1,1.9,3.4,3l2.7,1.3
				c2.3,1.1,3.3,2.9,3.3,4.4C224.9,44.4,222.3,46.5,219,46.5"/>
			<path fill="#464342" d="M234,46.5c-1.9,0-3.6-1-4.4-1.7c-0.2,0.2-0.7,1-0.8,1.7h-0.9v-6.7h1c0.4,3.2,2.6,5.1,5.5,5.1
				c1.6,0,2.8-0.9,2.8-2.3c0-1.3-1.1-2.2-3.1-3.2l-2.8-1.3c-1.9-0.9-3.4-2.5-3.4-4.7c0-2.3,2.2-4.3,5.2-4.3c1.6,0,3,0.6,3.8,1.3
				c0.2-0.2,0.5-0.7,0.6-1.3h0.9v5.7h-1c-0.3-2.3-1.6-4.2-4.2-4.2c-1.4,0-2.6,0.8-2.6,2c0,1.3,1,1.9,3.4,3l2.7,1.3
				c2.3,1.1,3.3,2.9,3.3,4.4C239.9,44.4,237.3,46.5,234,46.5"/>
			<path fill="#464342" d="M22.3,35c0,8.5,5,15.9,12.1,19.4L24.2,26.2C23,28.9,22.3,31.9,22.3,35"/>
			<path fill="#464342" d="M58.4,33.9c0-2.7-1-4.5-1.8-5.9c-1.1-1.8-2.1-3.3-2.1-5c0-2,1.5-3.8,3.6-3.8c0.1,0,0.2,0,0.3,0
				c-3.8-3.5-8.9-5.7-14.5-5.7c-7.5,0-14.1,3.9-18,9.7c0.5,0,1,0,1.4,0c2.3,0,5.7-0.3,5.7-0.3c1.2-0.1,1.3,1.6,0.1,1.8
				c0,0-1.2,0.1-2.5,0.2l7.8,23.3l4.7-14.1l-3.4-9.2c-1.2-0.1-2.3-0.2-2.3-0.2c-1.2-0.1-1-1.8,0.1-1.8c0,0,3.6,0.3,5.7,0.3
				c2.3,0,5.7-0.3,5.7-0.3c1.2-0.1,1.3,1.6,0.1,1.8c0,0-1.2,0.1-2.5,0.2L54.6,48l2.1-7.2C57.6,37.9,58.4,35.8,58.4,33.9"/>
			<path fill="#464342" d="M44.2,36.9l-6.5,18.8c1.9,0.6,4,0.9,6.1,0.9c2.5,0,4.9-0.4,7.1-1.2c-0.1-0.1-0.1-0.2-0.2-0.3L44.2,36.9z"
				/>
			<path fill="#464342" d="M62.7,24.7c0.1,0.7,0.1,1.4,0.1,2.2c0,2.2-0.4,4.6-1.6,7.7l-6.6,19C61,49.9,65.3,42.9,65.3,35
				C65.3,31.3,64.4,27.7,62.7,24.7"/>
			<path fill="#464342" d="M43.8,9.9C30,9.9,18.7,21.2,18.7,35c0,13.8,11.3,25.1,25.1,25.1c13.8,0,25.1-11.3,25.1-25.1
				C68.9,21.2,57.7,9.9,43.8,9.9 M43.8,58.9c-13.2,0-23.9-10.7-23.9-23.9c0-13.2,10.7-23.9,23.9-23.9C57,11.1,67.8,21.8,67.8,35
				C67.8,48.2,57,58.9,43.8,58.9"/>
		</g>
	</g>
</g>
</svg>
