<?xml version="1.0" encoding="utf-8"?>
<!-- Generator: Adobe Illustrator 16.0.0, SVG Export Plug-In . SVG Version: 6.00 Build 0)  -->
<!DOCTYPE svg PUBLIC "-//W3C//DTD SVG 1.0//EN" "http://www.w3.org/TR/2001/REC-SVG-20010904/DTD/svg10.dtd">
<svg version="1.0" id="Layer_2" xmlns="http://www.w3.org/2000/svg" xmlns:xlink="http://www.w3.org/1999/xlink" x="0px" y="0px"
	 width="259px" height="70px" viewBox="0 0 259 70" enable-background="new 0 0 259 70" xml:space="preserve">
<g>
	<g>
		<path fill="#ED2024" d="M92,19.7c-0.7-2.7-2.9-4.9-5.6-5.6c-4.9-1.3-24.8-1.3-24.8-1.3s-19.8,0-24.8,1.3c-2.7,0.7-4.9,2.9-5.6,5.6
			C30,24.7,30,35,30,35s0,10.3,1.3,15.3c0.7,2.7,2.9,4.9,5.6,5.6c4.9,1.3,24.8,1.3,24.8,1.3s19.8,0,24.8-1.3
			c2.7-0.7,4.9-2.9,5.6-5.6c1.3-4.9,1.3-15.3,1.3-15.3S93.3,24.7,92,19.7z"/>
	</g>
	<polygon fill="#FFFFFF" points="55.3,44.5 71.8,35 55.3,25.5 	"/>
	<path fill="#282828" d="M129,48.8c0.3-0.9,0.5-2.4,0.5-4.4v-8.7c0-2-0.2-3.5-0.5-4.4c-0.3-0.9-1-1.4-1.8-1.4
		c-0.8,0-1.4,0.5-1.8,1.4c-0.3,0.9-0.5,2.4-0.5,4.4v8.7c0,2.1,0.2,3.5,0.5,4.4c0.3,0.9,0.9,1.4,1.8,1.4
		C128,50.2,128.6,49.7,129,48.8z M122,53.2c-1.3-0.8-2.1-2.2-2.7-3.9c-0.5-1.8-0.8-4.2-0.8-7.1v-4c0-3,0.3-5.4,0.9-7.2
		s1.5-3.1,2.8-4c1.3-0.8,3-1.2,5.1-1.2c2.1,0,3.7,0.4,4.9,1.3s2.1,2.2,2.7,4c0.6,1.8,0.9,4.2,0.9,7.2v4c0,3-0.3,5.3-0.8,7.1
		c-0.6,1.8-1.5,3.1-2.7,3.9s-3,1.2-5.1,1.2C124.9,54.4,123.2,54,122,53.2z"/>
	<path fill="#282828" d="M219,30.5c-0.3,0.4-0.5,1-0.6,1.9c-0.1,0.9-0.2,2.2-0.2,4.1v2h4.6v-2c0-1.8-0.1-3.1-0.2-4.1
		c-0.1-0.9-0.3-1.6-0.7-1.9c-0.3-0.4-0.8-0.6-1.5-0.6C219.8,29.9,219.3,30.1,219,30.5z M218.2,42.2v1.4c0,1.8,0.1,3.1,0.2,4
		c0.1,0.9,0.3,1.5,0.7,1.9c0.3,0.4,0.8,0.6,1.5,0.6c0.9,0,1.6-0.4,1.9-1.1c0.3-0.7,0.5-1.9,0.6-3.6l5.4,0.3c0,0.2,0,0.6,0,1
		c0,2.6-0.7,4.5-2.1,5.8c-1.4,1.3-3.4,1.9-6,1.9c-3.1,0-5.2-1-6.5-2.9c-1.2-1.9-1.9-4.9-1.9-9v-4.8c0-4.2,0.6-7.2,1.9-9.1
		c1.3-1.9,3.5-2.9,6.6-2.9c2.1,0,3.8,0.4,4.9,1.2s2,2,2.4,3.7c0.5,1.7,0.7,4,0.7,6.9v4.8H218.2z"/>
	<path fill="#282828" d="M106.7,41.7L99.6,16h6.2l2.5,11.6c0.6,2.9,1.1,5.3,1.4,7.3h0.2c0.2-1.4,0.7-3.9,1.4-7.3l2.6-11.7h6.2
		l-7.2,25.7V54h-6.2V41.7z"/>
	<path fill="#282828" d="M156,26.2V54h-4.9l-0.5-3.4h-0.1c-1.3,2.6-3.3,3.9-6,3.9c-1.8,0-3.2-0.6-4.1-1.8c-0.9-1.2-1.3-3.1-1.3-5.7
		V26.2h6.3v20.4c0,1.2,0.1,2.1,0.4,2.7c0.3,0.5,0.7,0.8,1.4,0.8c0.5,0,1.1-0.2,1.6-0.5s0.9-0.8,1.1-1.3V26.2H156z"/>
	<path fill="#282828" d="M188.1,26.2V54h-4.9l-0.5-3.4h-0.1c-1.3,2.6-3.3,3.9-6,3.9c-1.8,0-3.2-0.6-4.1-1.8
		c-0.9-1.2-1.3-3.1-1.3-5.7V26.2h6.3v20.4c0,1.2,0.1,2.1,0.4,2.7c0.3,0.5,0.7,0.8,1.4,0.8c0.5,0,1.1-0.2,1.6-0.5
		c0.5-0.3,0.9-0.8,1.1-1.3V26.2H188.1z"/>
	<polygon fill="#282828" points="173,21 166.8,21 166.8,54 160.7,54 160.7,21 154.5,21 154.5,16 173,16 	"/>
	<path fill="#282828" d="M203,42c0,2-0.1,3.6-0.2,4.8s-0.4,2-0.8,2.4c-0.4,0.5-0.9,0.7-1.6,0.7c-0.5,0-1-0.1-1.4-0.4
		c-0.4-0.2-0.8-0.6-1.1-1.1V32.7c0.2-0.8,0.6-1.4,1.1-1.9c0.5-0.5,1.1-0.7,1.7-0.7c0.6,0,1.1,0.2,1.5,0.7c0.3,0.5,0.6,1.3,0.7,2.5
		c0.1,1.2,0.2,2.9,0.2,5V42z M208.8,30.7c-0.4-1.8-1-3-1.8-3.8c-0.8-0.8-2-1.2-3.5-1.2c-1.1,0-2.2,0.3-3.2,1c-1,0.6-1.8,1.5-2.3,2.6
		h0l0-14.6h-6V54h5.2l0.6-2.6h0.1c0.5,0.9,1.2,1.7,2.2,2.2c1,0.5,2,0.8,3.2,0.8c2.1,0,3.7-1,4.7-2.9c1-1.9,1.5-5,1.5-9.1v-4.4
		C209.3,34.8,209.2,32.4,208.8,30.7z"/>
</g>
</svg>
