<?xml version="1.0" encoding="utf-8"?>
<!-- Generator: Adobe Illustrator 16.0.0, SVG Export Plug-In . SVG Version: 6.00 Build 0)  -->
<!DOCTYPE svg PUBLIC "-//W3C//DTD SVG 1.0//EN" "http://www.w3.org/TR/2001/REC-SVG-20010904/DTD/svg10.dtd">
<svg version="1.0" id="Layer_9" xmlns="http://www.w3.org/2000/svg" xmlns:xlink="http://www.w3.org/1999/xlink" x="0px" y="0px"
	 width="259px" height="70px" viewBox="0 0 259 70" enable-background="new 0 0 259 70" xml:space="preserve">
<g id="Page-1">
	<g id="asknicely_logo_vector">
		<path id="asknicely-copy-6" fill="#B43DC6" d="M241.5,30.9c0.3,0.4,0.5,0.7,0.5,1.1c0,0.4,0,0.7-0.1,0.8l-10.6,25.6
			c-0.3,0.8-0.9,1.2-1.6,1.2c-0.5,0-0.9-0.2-1.2-0.5c-0.3-0.3-0.5-0.7-0.5-1c0-0.3,0-0.6,0.1-0.8l2.5-6.5L223.2,33
			c-0.1-0.3-0.2-0.6-0.2-0.9c0-0.4,0.2-0.7,0.5-1.1c0.3-0.3,0.7-0.5,1.1-0.5c0.9,0,1.4,0.4,1.8,1.1l6,14.9l6.1-14.9
			c0.3-0.8,0.9-1.2,1.6-1.2C240.7,30.4,241.1,30.6,241.5,30.9L241.5,30.9z M217.6,22.3c0.3-0.3,0.8-0.5,1.3-0.5
			c0.5,0,0.9,0.2,1.3,0.5c0.3,0.3,0.5,0.8,0.5,1.3V49c0,0.5-0.2,0.9-0.5,1.3c-0.3,0.3-0.8,0.5-1.3,0.5c-0.5,0-0.9-0.2-1.3-0.5
			c-0.3-0.3-0.5-0.8-0.5-1.3V23.6C217.1,23.1,217.3,22.7,217.6,22.3L217.6,22.3z M204.7,33.2c-2.3,0-4,1-5.1,3.1
			c-0.4,0.7-0.6,1.6-0.7,2.6h11.5c-0.1-1.8-0.8-3.3-2-4.4C207.4,33.7,206.2,33.2,204.7,33.2L204.7,33.2z M201,46
			c1.1,1,2.7,1.6,4.7,1.6s3.7-0.3,5-1c0.5-0.2,0.9-0.4,1.2-0.4c0.3,0,0.7,0.1,1,0.4c0.3,0.3,0.5,0.6,0.5,1c0,0.7-0.3,1.2-0.8,1.5
			c-0.6,0.3-1.1,0.6-1.5,0.8c-0.4,0.2-0.9,0.4-1.4,0.5c-1.2,0.3-2.5,0.5-4.1,0.5c-3.2,0-5.7-0.9-7.4-2.7c-1.8-1.8-2.7-4.4-2.7-7.7
			c0-2.9,0.7-5.2,2.2-7.2c1.7-2.1,4-3.2,7.1-3.2c2.9,0,5.2,1,6.9,3c1.6,1.9,2.4,4.1,2.4,6.9c0,0.5-0.2,0.9-0.5,1.3
			c-0.3,0.3-0.8,0.5-1.3,0.5H199C199.2,43.6,199.8,45,201,46L201,46z M187.2,47.6c1.5,0,2.8-0.4,4.2-1.1c0.5-0.3,0.9-0.4,1.2-0.4
			s0.7,0.2,1,0.5c0.3,0.3,0.4,0.7,0.4,1.2s-0.3,0.9-0.9,1.3c-1.8,1.2-3.9,1.8-6.2,1.8c-2.9,0-5.3-0.9-7.3-2.7
			c-2.1-1.9-3.1-4.5-3.1-7.6c0-3.2,1-5.7,3.1-7.6c2-1.8,4.4-2.7,7.3-2.7c1.6,0,2.8,0.2,3.8,0.6c1,0.4,1.8,0.8,2.4,1.2
			c0.6,0.4,0.9,0.8,0.9,1.3s-0.1,0.9-0.4,1.2c-0.3,0.3-0.6,0.5-0.9,0.5c-0.4,0-0.9-0.1-1.4-0.4c-1.3-0.7-2.7-1.1-4.2-1.1
			c-2.3,0-4.1,0.6-5.3,1.9c-1.2,1.3-1.9,3-1.9,5.1c0,2.1,0.6,3.8,1.9,5.1C183.1,47,184.9,47.6,187.2,47.6L187.2,47.6z M173.7,24.6
			c0,0.5-0.2,1-0.6,1.4c-0.4,0.4-0.9,0.6-1.4,0.6h-0.2c-0.5,0-1-0.2-1.4-0.6c-0.4-0.4-0.6-0.9-0.6-1.4v-0.2c0-0.5,0.2-1,0.6-1.4
			c0.4-0.4,0.9-0.6,1.4-0.6h0.2c0.5,0,1,0.2,1.4,0.6c0.4,0.4,0.6,0.9,0.6,1.4V24.6z M170.4,30.9c0.3-0.3,0.8-0.5,1.3-0.5
			c0.5,0,0.9,0.2,1.3,0.5c0.3,0.3,0.5,0.8,0.5,1.3V49c0,0.5-0.2,0.9-0.5,1.2c-0.3,0.3-0.8,0.5-1.3,0.5c-0.5,0-0.9-0.2-1.3-0.5
			c-0.3-0.3-0.5-0.8-0.5-1.2V32.2C169.8,31.7,170,31.3,170.4,30.9L170.4,30.9z M164,23.1c0.5,0,0.9,0.2,1.3,0.5
			c0.4,0.4,0.5,0.8,0.5,1.3v23.3c0,0.7-0.3,1.3-0.8,1.8c-0.5,0.5-1.1,0.7-1.8,0.7h-0.5c-0.9,0-1.5-0.4-2.1-1.1l-15.1-21.8V49
			c0,0.5-0.2,0.9-0.5,1.3c-0.4,0.3-0.8,0.5-1.3,0.5c-0.5,0-0.9-0.2-1.2-0.5c-0.3-0.3-0.5-0.8-0.5-1.3V25.6c0-0.7,0.2-1.3,0.7-1.8
			c0.5-0.5,1.1-0.8,1.8-0.8h0.5c0.8,0,1.5,0.4,2.1,1.2l15,21.7V24.9c0-0.5,0.2-0.9,0.5-1.3C163.1,23.2,163.5,23.1,164,23.1L164,23.1
			z M134.2,48c0.3,0.3,0.4,0.7,0.4,1.2c0,0.4-0.2,0.8-0.5,1.1c-0.3,0.3-0.7,0.5-1.1,0.5c-0.6,0-1.2-0.2-1.6-0.7l-6.7-9.1l-3.4,3.1v5
			c0,0.5-0.2,0.9-0.5,1.2c-0.4,0.3-0.8,0.5-1.3,0.5c-0.5,0-0.9-0.2-1.2-0.5c-0.3-0.3-0.5-0.8-0.5-1.2V23.6c0-0.5,0.2-0.9,0.5-1.3
			c0.3-0.4,0.8-0.5,1.2-0.5c0.5,0,0.9,0.2,1.3,0.5c0.4,0.4,0.5,0.8,0.5,1.3v16l9.3-8.6c0.4-0.3,0.9-0.5,1.4-0.5
			c0.5,0,0.9,0.2,1.1,0.6c0.2,0.4,0.4,0.7,0.4,1c0,0.6-0.2,1.1-0.7,1.5l-5.6,5L134.2,48z M107.3,47.6c2.9,0,4.3-0.9,4.3-2.8
			c0-0.6-0.3-1-0.9-1.3c-0.6-0.3-1.3-0.6-2.2-0.8c-0.9-0.2-1.8-0.5-2.8-0.7c-1-0.2-2-0.6-2.8-1c-0.9-0.4-1.6-1-2.2-1.7
			c-0.6-0.7-0.9-1.6-0.9-2.6s0.2-1.9,0.5-2.7c0.3-0.8,0.8-1.4,1.4-2c1.4-1.2,3.3-1.8,5.7-1.8c1.9,0,3.8,0.3,5.7,1
			c0.4,0.1,0.6,0.3,0.8,0.6c0.2,0.3,0.3,0.6,0.3,1c0,0.4-0.2,0.7-0.4,1c-0.3,0.3-0.6,0.5-0.9,0.5c-0.3,0-0.6-0.1-1.1-0.2
			c-1.2-0.4-2.6-0.6-4.1-0.6c-1.5,0-2.6,0.3-3.4,0.8c-0.8,0.5-1.2,1.1-1.2,1.9c0,0.7,0.3,1.3,0.9,1.6c0.6,0.4,1.3,0.6,2.2,0.9
			c0.9,0.2,1.8,0.5,2.8,0.7c1,0.2,2,0.6,2.8,1c2,1,3,2.7,3,4.8c0,1.7-0.6,3-1.9,4.1c-1.4,1.1-3.2,1.7-5.7,1.7c-2.6,0-5-0.6-7.1-1.8
			c-0.4-0.3-0.7-0.7-0.7-1.2c0-0.5,0.1-0.9,0.4-1.2c0.3-0.3,0.6-0.5,0.9-0.5c0.3,0,0.7,0.1,1.2,0.3
			C103.8,47.3,105.5,47.6,107.3,47.6L107.3,47.6z M90.9,40.3l-5.3-12.7l-5.3,12.7H90.9z M98,48.2c0.1,0.3,0.2,0.6,0.2,1
			c0,0.4-0.2,0.7-0.5,1c-0.3,0.3-0.8,0.5-1.5,0.5s-1.2-0.4-1.5-1.1l-2.5-6.1H79l-2.5,6.1c-0.3,0.7-0.8,1.1-1.5,1.1s-1.2-0.2-1.5-0.5
			c-0.3-0.3-0.5-0.7-0.5-1c0-0.4,0.1-0.7,0.2-1l9.9-23.5c0.5-1.1,1.2-1.6,2.3-1.6h0.4c1,0,1.8,0.5,2.3,1.6L98,48.2z M42.2,10.3
			c1.7,0,3.3,0.8,4.3,2.3c0.8,1.3,3.8,6.3,4.7,7.7c1.6,2.6,0.9,6-1.5,7.6c-0.9,0.6-1.9,0.9-2.9,0.9c-1.8,0-3.5-0.9-4.5-2.5
			c-0.3-0.5-0.6-1.1-1.5-2.5c-0.1-0.2-0.4-0.3-0.6-0.3c-0.1,0-0.3,0-0.4,0.1L36.9,25c0,0,0.2-9.6,0.3-10.2c0.2-1.5,1-2.9,2.3-3.7
			C40.3,10.5,41.3,10.3,42.2,10.3L42.2,10.3z M62.7,25.2c1.1,0,2.3,0.4,3.2,1.2c2.2,1.8,2.5,5,0.7,7.2c-1,1.2-4.8,5.6-5.9,6.9
			c-1.1,1.3-2.7,2-4.4,2c-1.2,0-2.4-0.4-3.3-1.1c-2.3-1.8-2.7-5.3-0.7-7.6c0.4-0.4,0.8-0.9,1.9-2.2c0.3-0.3,0.2-0.8-0.1-1.1
			l-2.2-2.2c0,0,9.1-2.8,9.8-2.9C62,25.2,62.3,25.2,62.7,25.2L62.7,25.2z M53.5,43.4c0,0,5.4,7.9,5.8,8.4c0.7,1.3,0.9,2.9,0.3,4.4
			c-0.8,2-2.7,3.2-4.7,3.2c-0.6,0-1.2-0.1-1.8-0.3c-1.5-0.6-6.8-2.8-8.4-3.5c-2.8-1.1-4.2-4.3-3.2-7.1c0.8-2.1,2.8-3.4,5-3.4
			c0.7,0,1.3,0.1,2,0.4c0.5,0.2,1.1,0.5,2.7,1.1c0.1,0,0.2,0.1,0.3,0.1c0.3,0,0.6-0.2,0.7-0.5L53.5,43.4z M30.7,39.8
			c0.1,0,0.2,0,0.2,0c2.9,0.1,5.3,2.7,5,5.7c0,0.6-0.1,1.3-0.2,2.9c0,0.4,0.3,0.8,0.7,0.8l3.1,0.4c0,0-5.8,7.6-6.2,8.1
			c-0.9,1-2.3,1.7-3.8,1.7c-0.1,0-0.2,0-0.3,0c-2.8-0.2-4.9-2.6-4.8-5.4c0.1-1.6,0.6-7.3,0.7-9C25.4,42.1,27.9,39.8,30.7,39.8
			L30.7,39.8z M30.6,23.1c2.5,0,4.7,1.6,5.4,4c0.8,2.8-0.9,5.8-3.9,6.6c-0.6,0.1-1.2,0.3-2.8,0.7c-0.4,0.1-0.7,0.5-0.5,1l0.5,3
			c0,0-9-3.1-9.6-3.4c-1.4-0.6-2.4-1.8-2.8-3.4c-0.7-2.7,0.9-5.5,3.6-6.2c1.5-0.4,7.2-1.7,8.8-2.1C29.7,23.1,30.2,23.1,30.6,23.1
			L30.6,23.1z"/>
	</g>
</g>
</svg>
