<?xml version="1.0" encoding="utf-8"?>
<!-- Generator: Adobe Illustrator 16.0.0, SVG Export Plug-In . SVG Version: 6.00 Build 0)  -->
<!DOCTYPE svg PUBLIC "-//W3C//DTD SVG 1.0//EN" "http://www.w3.org/TR/2001/REC-SVG-20010904/DTD/svg10.dtd">
<svg version="1.0" id="Layer_8" xmlns="http://www.w3.org/2000/svg" xmlns:xlink="http://www.w3.org/1999/xlink" x="0px" y="0px"
	 width="259px" height="70px" viewBox="0 0 259 70" enable-background="new 0 0 259 70" xml:space="preserve">
<g>
	<path fill="#3B5998" d="M132.4,34.4c-1.7,0-2.9,0.6-4.2,1.1v12.9c1.2,0.1,1.9,0.1,3,0.1c4.1,0,4.7-1.9,4.7-4.5v-6.2
		C135.9,36,135.2,34.4,132.4,34.4L132.4,34.4z M105.2,33.7c-2.8,0-3.5,1.6-3.5,3.5v1.1h7v-1.1C108.7,35.3,108,33.7,105.2,33.7z
		 M52.5,47.1c0,1.5,0.7,2.3,2.3,2.3c1.7,0,2.7-0.6,4-1.1v-3.1h-3.7C53.3,45.3,52.5,45.6,52.5,47.1z M158.8,34.4
		c-2.8,0-3.8,1.6-3.8,3.5V45c0,1.9,1,3.5,3.8,3.5c2.8,0,3.8-1.6,3.8-3.5v-7.1C162.7,36,161.7,34.4,158.8,34.4z M38.6,55h-8.4V34.8
		H26v-7h4.2v-4.2c0-5.7,2.4-9.1,9.1-9.1h5.6v7h-3.5c-2.6,0-2.8,1-2.8,2.8l0,3.5h6.3l-0.7,7h-5.6V55z M67.2,55.1h-7l-0.3-1.8
		c-3.2,1.8-6,2-7.9,2c-5.1,0-7.8-3.4-7.8-8.1c0-5.6,3.2-7.6,8.9-7.6h5.8v-1.2c0-2.8-0.3-3.7-4.7-3.7H47l0.7-7h7.8
		c9.6,0,11.7,3,11.7,10.7V55.1L67.2,55.1z M90.9,35.3c-4.3-0.7-5.6-0.9-7.7-0.9c-3.7,0-4.9,0.8-4.9,4v6c0,3.2,1.1,4,4.9,4
		c2.1,0,3.3-0.2,7.7-0.9v6.8c-3.8,0.9-6.3,1.1-8.4,1.1c-9,0-12.5-4.7-12.5-11.5V39c0-6.8,3.6-11.6,12.5-11.6c2.1,0,4.6,0.2,8.4,1.1
		V35.3L90.9,35.3z M117,43.9h-15.3v0.6c0,3.2,1.1,4,4.9,4c3.4,0,5.4-0.2,9.8-0.9v6.8c-4.2,0.9-6.4,1.1-10.4,1.1
		c-9,0-12.6-4.7-12.6-11.5v-5.6c0-6,2.6-10.9,11.9-10.9c9.2,0,11.8,4.8,11.8,10.9V43.9z M144.2,44c0,6.6-1.9,11.4-13.3,11.4
		c-4.1,0-6.5-0.4-11.1-1.1V16.7l8.4-1.4v13.2c1.8-0.7,4.1-1,6.3-1c8.4,0,9.8,3.8,9.8,9.8L144.2,44L144.2,44z M171,44.1
		c0,5.7-2.3,11.2-12.2,11.2c-9.8,0-12.2-5.5-12.2-11.2v-5.5c0-5.7,2.4-11.2,12.2-11.2c9.8,0,12.2,5.5,12.2,11.2V44.1z M197.8,44.1
		c0,5.7-2.4,11.2-12.2,11.2c-9.8,0-12.2-5.5-12.2-11.2v-5.5c0-5.7,2.4-11.2,12.2-11.2c9.8,0,12.2,5.5,12.2,11.2V44.1z M225.3,55
		h-9.1l-7.7-12.8V55h-8.4V16.7l8.4-1.4V40l7.7-12.1h9.1l-8.4,13.3L225.3,55z M185.6,34.4c-2.8,0-3.8,1.6-3.8,3.5V45
		c0,1.9,1,3.5,3.8,3.5c2.8,0,3.8-1.6,3.8-3.5v-7.1C189.5,36,188.5,34.4,185.6,34.4L185.6,34.4z M230.1,50.3c1.4,0,2.5,1.1,2.5,2.6
		c0,1.5-1.1,2.6-2.5,2.6c-1.4,0-2.6-1.1-2.6-2.6C227.5,51.4,228.7,50.3,230.1,50.3L230.1,50.3z M230.1,50.7c-1.1,0-2.1,1-2.1,2.2
		c0,1.2,0.9,2.2,2.1,2.2c1.1,0,2.1-1,2.1-2.2S231.2,50.7,230.1,50.7L230.1,50.7z M229.6,54.4h-0.5v-2.9c0.2,0,0.5-0.1,0.8-0.1
		c0.4,0,0.7,0.1,0.9,0.2c0.2,0.1,0.3,0.3,0.3,0.6c0,0.4-0.2,0.6-0.6,0.7v0c0.3,0,0.4,0.3,0.5,0.7c0.1,0.4,0.1,0.6,0.2,0.7h-0.5
		c-0.1-0.1-0.1-0.4-0.2-0.7c-0.1-0.4-0.3-0.5-0.6-0.5h-0.3V54.4L229.6,54.4z M229.6,52.8h0.3c0.4,0,0.7-0.1,0.7-0.5
		c0-0.3-0.2-0.5-0.7-0.5c-0.2,0-0.3,0-0.3,0V52.8L229.6,52.8z"/>
</g>
</svg>
